<svg width="79" height="35" viewBox="0 0 79 35" fill="none" xmlns="http://www.w3.org/2000/svg">
<line x1="77" y1="32.1053" x2="2" y2="32.1053" stroke="black" stroke-width="4" stroke-linecap="round" stroke-linejoin="round"/>
<path d="M62.3725 12L66.8346 24.5592H57.9103L62.3725 12Z" fill="white"/>
<path d="M17.1525 12L21.6147 24.5592H12.6903L17.1525 12Z" fill="white"/>
<path d="M28.4575 12L32.9197 24.5592H23.9954L28.4575 12Z" fill="white"/>
<path d="M39.7625 12L44.2246 24.5592H35.3003L39.7625 12Z" fill="white"/>
<path d="M51.0674 12L55.5296 24.5592H46.6052L51.0674 12Z" fill="white"/>
<line x1="2" y1="2" x2="77" y2="2" stroke="black" stroke-width="4" stroke-linecap="round" stroke-linejoin="round"/>
<path d="M45.2877 21L40.8255 8.44083L49.7499 8.44083L45.2877 21Z" fill="white"/>
<path d="M33.9828 21L29.5206 8.44083L38.4449 8.44083L33.9828 21Z" fill="white"/>
<path d="M22.6777 21L18.2155 8.44083L27.1399 8.44083L22.6777 21Z" fill="white"/>
<path d="M68.8976 24L63.5 8.5L69 8.5L74 8.5L68.8976 24Z" fill="white"/>
<path d="M56.5926 21L52.1305 8.44083L61.0548 8.44083L56.5926 21Z" fill="white"/>
<path d="M10.3976 24L5 8.5L10.5 8.5L15.5 8.5L10.3976 24Z" fill="white"/>
</svg>
