<svg width="79" height="41" viewBox="0 0 79 41" fill="none" xmlns="http://www.w3.org/2000/svg">
<line x1="77" y1="38.8509" x2="2" y2="38.8509" stroke="black" stroke-width="4" stroke-linecap="round" stroke-linejoin="round"/>
<path d="M62.3725 19.7456L66.8346 32.3047H57.9103L62.3725 19.7456Z" fill="white"/>
<path d="M17.1525 19.7456L21.6147 32.3047H12.6903L17.1525 19.7456Z" fill="white"/>
<path d="M28.4575 19.7456L32.9197 32.3047H23.9954L28.4575 19.7456Z" fill="white"/>
<path d="M39.7625 19.7456L44.2246 32.3047H35.3003L39.7625 19.7456Z" fill="white"/>
<path d="M51.0674 19.7456L55.5296 32.3047H46.6052L51.0674 19.7456Z" fill="white"/>
<line x1="2" y1="2.74557" x2="77" y2="2.74557" stroke="black" stroke-width="4" stroke-linecap="round" stroke-linejoin="round"/>
<path d="M45.2877 20.7456L40.8255 8.1864L49.7499 8.1864L45.2877 20.7456Z" fill="white"/>
<path d="M33.9828 20.7456L29.5206 8.1864L38.4449 8.1864L33.9828 20.7456Z" fill="white"/>
<path d="M22.6777 20.7456L18.2155 8.1864L27.1399 8.1864L22.6777 20.7456Z" fill="white"/>
<path d="M68.8976 23.7456L63.5 8.24557L69 8.24558L74 8.24557L68.8976 23.7456Z" fill="white"/>
<path d="M56.5926 20.7456L52.1305 8.1864L61.0548 8.1864L56.5926 20.7456Z" fill="white"/>
<path d="M10.3976 23.7456L5 8.24557L10.5 8.24558L15.5 8.24557L10.3976 23.7456Z" fill="white"/>
</svg>
